<svg width="55" height="85" viewBox="0 0 55 85" fill="none" xmlns="http://www.w3.org/2000/svg">
<path d="M54.9805 7.49982C36.4351 21.7653 32.6371 40.864 31.9835 53.3651C27.5439 55.8553 24.462 57.9998 24.462 57.9998C24.462 57.9998 27.6174 56.2173 31.9376 54.4246C31.7574 58.9463 31.9659 62.5028 31.9659 64.4998C23.4789 64.4998 14.5097 84.4456 14.4805 84.5106C14.4893 84.3798 17.9996 32.4742 43.9805 12.5106C17.9966 26.4834 11.9943 84.378 11.9805 84.5106C11.9805 84.4277 11.9676 64.4998 5.96492 64.4998C5.96497 62.1216 6.24924 58.9904 6.89265 55.4168C9.69913 60.8265 11.9474 65.9599 11.9649 65.9998C11.952 65.9529 10.0641 59.08 7.54988 52.1834C7.92722 50.5141 8.37816 48.7772 8.90925 46.9988C11.9338 52.7281 14.4413 58.4525 14.462 58.4998C14.4478 58.4482 12.4527 51.1903 9.83406 44.1072C15.662 27.0138 28.9027 7.49986 54.9805 7.49982Z" fill="#B13434"/>
<path d="M0.262769 58.7305C1.80409 60.4173 3.25981 62.0866 4.47859 63.5166C4.46889 63.8559 4.46492 64.1839 4.46492 64.5V66H5.96492C6.25172 66 6.60221 66.128 6.99128 66.5215C7.145 66.7088 7.2813 66.8756 7.39851 67.0195C7.61535 67.3306 7.84171 67.7277 8.07039 68.2334C8.8299 69.9133 9.36992 72.2444 9.74031 74.6982C9.89836 75.7454 10.0205 76.7943 10.1182 77.7959C8.05866 72.6093 4.98841 66.8679 1.71785 67.7441C1.10238 65.447 0.566187 62.3487 0.262769 58.7305Z" fill="#318BA4"/>
<path d="M0.0322998 50.0771C1.97168 52.1693 3.81219 54.2879 5.2696 56.0059C4.89043 58.2671 4.65328 60.3505 4.54207 62.1758C3.25918 60.1571 1.70721 57.7855 0.0606201 55.4365C-0.00693392 53.7265 -0.0204265 51.9322 0.0322998 50.0771Z" fill="#318BA4"/>
<path d="M34.3106 0C29.9848 5.65146 27.0934 11.382 25.2364 16.9648C21.3896 20.3678 18.1848 24.3323 15.5411 28.5205C17.4422 20.8732 20.4309 13.6266 24.9825 7.68652C18.6004 13.6942 14.9241 22.9904 12.9112 33.0938C11.159 36.4404 9.72713 39.8476 8.57625 43.1553L8.52253 43.0527L7.47175 46.5693C7.0211 48.0783 6.62952 49.5595 6.28816 50.9951L6.19636 50.8184L5.44734 54.9746C4.00112 52.6806 2.14691 49.8284 0.176831 47.0449C1.38212 29.0256 9.12135 6.74949 34.3106 0Z" fill="#318BA4"/>
</svg>
